2.2Hzhigh3min_grf.mot
version=1
nRows=30
nColumns 19
inDegrees=yes
endheader
time	1_ground_force_vx	1_ground_force_vy	1_ground_force_vz	1_ground_force_px	1_ground_force_py	1_ground_force_pz	1_ground_torque_x	1_ground_torque_y	1_ground_torque_z	2_ground_force_vx	2_ground_force_vy	2_ground_force_vz	2_ground_force_px	2_ground_force_py	2_ground_force_pz	2_ground_torque_x	2_ground_torque_y	2_ground_torque_z
            3.751500	            0.549367	            0.361817	           -0.274955	           -0.233013	            0.005581	           -0.255695	           -0.007456	            0.046862	           -0.070327	            0.140673	           -0.000497	            0.281509	           -0.232311	            0.006130	           -0.833667	           -0.112957	            0.047462	           -0.169435
            3.752000	            0.412051	           -0.179203	           -0.231077	           -0.233013	            0.005581	           -0.255695	           -0.083885	            0.037058	            0.036764	            0.189393	           -0.551768	           -0.002051	           -0.232311	            0.006130	           -0.833667	           -0.075183	            0.000065	           -0.094219
            3.752500	            0.274554	           -0.359495	           -0.231508	           -0.233013	            0.005581	           -0.255695	            0.009892	            0.028092	           -0.044557	            0.376252	           -0.367948	            0.280095	           -0.232311	            0.006130	           -0.833667	           -0.150401	            0.018766	           -0.112970
            3.753000	            0.228613	            0.181293	           -0.229075	           -0.233013	            0.005581	           -0.255695	           -0.027813	            0.000011	            0.028634	            0.374217	            0.184832	            0.188210	           -0.232311	            0.006130	           -0.833667	           -0.112933	            0.056444	           -0.037450
            3.753500	            0.366190	            0.541654	           -0.182015	           -0.233013	            0.005581	           -0.255695	            0.026016	           -0.064053	           -0.097509	            0.377684	           -0.737081	            0.513421	           -0.232311	            0.006130	           -0.833667	           -0.112779	            0.009315	           -0.075319
            3.754000	            0.182790	           -1.801048	           -0.375032	           -0.233013	            0.005581	           -0.255695	           -0.095992	           -0.036599	           -0.067228	            0.374237	            0.184665	            0.235138	           -0.232311	            0.006130	           -0.833667	           -0.131624	            0.018901	           -0.131828
            3.754500	            0.182722	           -0.179051	           -0.276364	           -0.233013	            0.005581	           -0.255695	            0.030641	           -0.009163	            0.007710	            0.003549	           -0.922583	            0.512924	           -0.232311	            0.006130	           -0.833667	           -0.094199	            0.066099	           -0.075125
            3.755000	            0.136909	            0.902141	           -0.179900	           -0.233013	            0.005581	           -0.255695	            0.082331	            0.074020	            0.005945	            0.140652	           -0.000329	            0.234581	           -0.232311	            0.006130	           -0.833667	           -0.187829	           -0.000880	            0.056631
            3.755500	            0.457145	            0.182517	           -0.504780	           -0.233013	            0.005581	           -0.255695	           -0.072382	            0.046315	            0.038717	           -0.047288	            0.182138	            0.516886	           -0.232311	            0.006130	           -0.833667	           -0.169280	            0.046989	           -0.094010
            3.756000	            0.137010	           -0.900122	           -0.279342	           -0.233013	            0.005581	           -0.255695	           -0.062956	            0.037337	           -0.068980	            0.233667	            0.184325	            0.188270	           -0.232311	            0.006130	           -0.833667	           -0.094028	            0.018835	           -0.075293
            3.756500	            0.136421	            1.083193	           -0.362551	           -0.233013	            0.005581	           -0.255695	            0.071144	           -0.036668	           -0.050902	            0.423746	           -0.551759	            0.232490	           -0.232311	            0.006130	           -0.833667	           -0.056416	            0.018635	            0.018942
            3.757000	            0.228646	            0.001027	           -0.229848	           -0.233013	            0.005581	           -0.255695	            0.047402	           -0.055435	            0.028216	            0.421087	            0.184834	            0.235118	           -0.232311	            0.006130	           -0.833667	           -0.094061	            0.019104	           -0.150694
            3.757500	           -0.137790	            0.180632	           -0.090598	           -0.233013	            0.005581	           -0.255695	           -0.127713	           -0.027660	           -0.043268	            0.280435	            0.185163	            0.000538	           -0.232311	            0.006130	           -0.833667	           -0.075378	            0.047530	           -0.150601
            3.758000	            0.045127	            0.181454	           -0.274476	           -0.233013	            0.005581	           -0.255695	            0.011522	            0.027905	           -0.035557	            0.188208	           -0.184643	            0.327760	           -0.232311	            0.006130	           -0.833667	           -0.056433	            0.018769	           -0.018759
            3.758500	            0.366273	           -0.539743	           -0.232509	           -0.233013	            0.005581	           -0.255695	            0.010108	            0.046460	           -0.002967	            0.328799	           -0.184471	            0.421556	           -0.232311	            0.006130	           -0.833667	           -0.112872	            0.028422	           -0.131802
            3.759000	            0.136439	            0.362327	           -0.411499	           -0.233013	            0.005581	           -0.255695	            0.036051	            0.046434	           -0.031635	            0.142023	           -0.368961	            0.327123	           -0.232311	            0.006130	           -0.833667	           -0.056491	            0.028424	           -0.075276
            3.759500	            0.136600	            0.722466	           -0.318241	           -0.233013	            0.005581	           -0.255695	           -0.061762	            0.027609	            0.043706	            0.423828	           -0.552429	            0.420202	           -0.232311	            0.006130	           -0.833667	           -0.150231	           -0.019314	           -0.037704
            3.760000	            0.274051	           -0.719044	           -0.462334	           -0.233013	            0.005581	           -0.255695	            0.113819	           -0.036680	           -0.026282	            0.422416	           -0.183463	            0.233804	           -0.232311	            0.006130	           -0.833667	           -0.056491	            0.028424	           -0.075276
            3.760500	            0.229395	           -0.360684	            0.043741	           -0.233013	            0.005581	           -0.255695	            0.110948	           -0.083062	            0.009155	           -0.041971	           -1.291048	            0.511630	           -0.232311	            0.006130	           -0.833667	           -0.037486	           -0.019176	            0.037649
            3.761000	            0.182851	            0.361353	           -0.182333	           -0.233013	            0.005581	           -0.255695	            0.063840	           -0.045966	           -0.030146	            0.139344	            0.367800	            0.282823	           -0.232311	            0.006130	           -0.833667	           -0.056363	           -0.009320	           -0.094261
            3.761500	            0.274243	            0.722295	           -0.272726	           -0.233013	            0.005581	           -0.255695	           -0.045159	            0.000350	           -0.044578	            0.232482	            0.551450	            0.518081	           -0.232311	            0.006130	           -0.833667	           -0.056552	            0.056445	            0.019077
            3.762000	           -0.092435	            0.361693	           -0.273362	           -0.233013	            0.005581	           -0.255695	            0.011383	            0.074059	           -0.041229	            0.093885	           -0.001168	            0.422313	           -0.232311	            0.006130	           -0.833667	           -0.000229	            0.056918	           -0.056348
            3.762500	            0.136993	           -0.179256	           -0.230394	           -0.233013	            0.005581	           -0.255695	            0.066316	           -0.000093	            0.043302	            0.376313	           -0.368450	            0.420879	           -0.232311	            0.006130	           -0.833667	            0.000119	           -0.028493	            0.037599
            3.763000	            0.274587	           -0.539761	           -0.232281	           -0.233013	            0.005581	           -0.255695	           -0.046352	            0.009675	           -0.063288	            0.283258	           -0.552769	            0.373334	           -0.232311	            0.006130	           -0.833667	           -0.093977	            0.009248	           -0.037627
            3.763500	            0.183030	            0.000625	           -0.138023	           -0.233013	            0.005581	           -0.255695	            0.062251	           -0.018476	            0.026383	            0.233708	            0.183990	            0.282126	           -0.232311	            0.006130	           -0.833667	           -0.075235	            0.028020	            0.018983
            3.764000	            0.228775	            0.541431	           -0.135818	           -0.233013	            0.005581	           -0.255695	           -0.107080	           -0.055381	            0.009783	            0.282531	           -0.368119	            0.233207	           -0.232311	            0.006130	           -0.833667	           -0.112805	            0.018700	           -0.056435
            3.764500	            0.044932	            0.001582	           -0.366961	           -0.233013	            0.005581	           -0.255695	            0.034332	           -0.036798	           -0.035884	            0.279852	            0.368642	            0.188907	           -0.232311	            0.006130	           -0.833667	           -0.112831	            0.028086	           -0.037551
            3.765000	            0.137089	            0.541413	           -0.135590	           -0.233013	            0.005581	           -0.255695	            0.080661	            0.036967	            0.024601	            0.092556	            0.367129	            0.423627	           -0.232311	            0.006130	           -0.833667	           -0.150375	            0.009381	           -0.131854
            3.765500	            0.274441	           -0.359299	           -0.277364	           -0.233013	            0.005581	           -0.255695	           -0.025370	            0.027520	            0.087115	            0.235682	           -0.368288	            0.233227	           -0.232311	            0.006130	           -0.833667	           -0.112627	           -0.019447	            0.037681
            3.766000	            0.320071	            0.181704	           -0.321015	           -0.233013	            0.005581	           -0.255695	            0.031954	            0.019355	           -0.155503	            0.235099	           -0.184809	            0.421596	           -0.232311	            0.006130	           -0.833667	           -0.150349	           -0.000005	           -0.150738
